<?xml version="1.0" encoding="UTF-8"?>
<svg width="93px" height="93px" viewBox="0 0 93 93" version="1.1" xmlns="http://www.w3.org/2000/svg" xmlns:xlink="http://www.w3.org/1999/xlink">
    <!-- Generator: Sketch 41.2 (35397) - http://www.bohemiancoding.com/sketch -->
    <title>fb-white</title>
    <desc>Created with Sketch.</desc>
    <defs></defs>
    <g id="Page-1" stroke="none" stroke-width="1" fill="none" fill-rule="evenodd">
        <g id="1496371515_Neon_Line_Social_Circles_50Icon_10px_grid-13" fill="#FFFFFF">
            <g id="Layer_1">
                <g id="Group">
                    <path d="M46.859,0.971 C21.506,0.971 0.881,21.596 0.881,46.949 C0.881,72.302 21.506,92.927 46.859,92.927 C72.211,92.927 92.836,72.302 92.836,46.949 C92.836,21.596 72.211,0.971 46.859,0.971 Z M46.859,90.926 C22.609,90.926 2.881,71.198 2.881,46.948 C2.881,22.698 22.609,2.971 46.859,2.971 C71.108,2.971 90.836,22.699 90.836,46.949 C90.836,71.199 71.108,90.926 46.859,90.926 Z" id="Shape"></path>
                    <path d="M61.343,19.212 L52.525,19.212 C45.331,19.212 39.253,26.049 39.253,34.143 L39.253,37.393 L32.252,37.393 C31.7,37.393 31.252,37.841 31.252,38.393 L31.252,49.303 C31.252,49.855 31.7,50.303 32.252,50.303 L39.253,50.303 L39.253,73.928 C39.253,74.48 39.701,74.928 40.253,74.928 L50.435,74.928 C50.987,74.928 51.435,74.48 51.435,73.928 L51.435,50.304 L61.344,50.304 C61.896,50.304 62.344,49.856 62.344,49.304 L62.344,38.394 C62.344,37.842 61.896,37.394 61.344,37.394 L51.435,37.394 L51.435,34.049 C51.435,32.777 52.199,32.121 52.525,32.121 L61.343,32.121 C61.895,32.121 62.343,31.673 62.343,31.121 L62.343,20.212 C62.343,19.66 61.896,19.212 61.343,19.212 Z M60.343,30.121 L52.525,30.121 C51.033,30.121 49.435,31.699 49.435,34.049 L49.435,38.394 C49.435,38.946 49.883,39.394 50.435,39.394 L60.344,39.394 L60.344,48.304 L50.435,48.304 C49.883,48.304 49.435,48.752 49.435,49.304 L49.435,72.929 L41.253,72.929 L41.253,49.304 C41.253,48.752 40.805,48.304 40.253,48.304 L33.252,48.304 L33.252,39.394 L40.253,39.394 C40.805,39.394 41.253,38.946 41.253,38.394 L41.253,34.144 C41.253,27.135 46.415,21.213 52.525,21.213 L60.343,21.213 L60.343,30.121 L60.343,30.121 Z" id="Shape"></path>
                </g>
            </g>
        </g>
    </g>
</svg>