<?xml version="1.0" encoding="UTF-8"?>
<svg width="93px" height="93px" viewBox="0 0 93 93" version="1.1" xmlns="http://www.w3.org/2000/svg" xmlns:xlink="http://www.w3.org/1999/xlink">
    <!-- Generator: Sketch 41.2 (35397) - http://www.bohemiancoding.com/sketch -->
    <title>1496371526_Neon_Line_Social_Circles_50Icon_10px_grid-22</title>
    <desc>Created with Sketch.</desc>
    <defs></defs>
    <g id="Page-1" stroke="none" stroke-width="1" fill="none" fill-rule="evenodd">
        <g id="1496371526_Neon_Line_Social_Circles_50Icon_10px_grid-22" fill="#FFFFFF">
            <g id="Layer_1">
                <g id="Group">
                    <path d="M46.918,92.866 C72.27,92.866 92.896,72.241 92.896,46.888 C92.896,21.536 72.271,0.911 46.918,0.911 C21.565,0.911 0.94,21.536 0.94,46.888 C0.94,72.241 21.566,92.866 46.918,92.866 Z M46.918,2.911 C71.168,2.911 90.896,22.639 90.896,46.888 C90.896,71.138 71.168,90.866 46.918,90.866 C22.668,90.866 2.94,71.138 2.94,46.888 C2.94,22.639 22.668,2.911 46.918,2.911 Z" id="Shape"></path>
                    <path d="M32.216,68.007 L61.62,68.007 C65.159,68.007 68.037,65.129 68.037,61.59 L68.037,42.197 C68.037,41.645 67.589,41.197 67.037,41.197 L58.536,41.197 C58.187,41.197 57.864,41.379 57.682,41.676 C57.5,41.974 57.487,42.344 57.646,42.655 C58.529,44.371 58.977,46.223 58.977,48.159 C58.977,54.808 53.567,60.217 46.918,60.217 C40.269,60.217 34.859,54.808 34.859,48.159 C34.859,46.222 35.307,44.37 36.19,42.655 C36.35,42.345 36.336,41.974 36.154,41.677 C35.973,41.379 35.649,41.198 35.3,41.198 L26.798,41.198 C26.246,41.198 25.798,41.646 25.798,42.198 L25.798,61.592 C25.799,65.129 28.677,68.007 32.216,68.007 Z M27.799,43.197 L33.762,43.197 C33.162,44.776 32.86,46.439 32.86,48.158 C32.86,55.909 39.167,62.216 46.919,62.216 C54.671,62.216 60.978,55.909 60.978,48.158 C60.978,46.439 60.675,44.776 60.076,43.197 L66.038,43.197 L66.038,61.591 C66.038,64.026 64.057,66.008 61.621,66.008 L32.216,66.008 C29.78,66.008 27.799,64.027 27.799,61.591 L27.799,43.197 Z" id="Shape"></path>
                    <path d="M58.388,38.37 L61.159,38.37 C63.459,38.37 65.33,36.499 65.33,34.2 L65.33,31.429 C65.33,29.129 63.459,27.258 61.159,27.258 L58.388,27.258 C56.088,27.258 54.217,29.129 54.217,31.429 L54.217,34.2 C54.217,36.499 56.088,38.37 58.388,38.37 Z M56.217,31.428 C56.217,30.231 57.191,29.257 58.388,29.257 L61.159,29.257 C62.356,29.257 63.33,30.231 63.33,31.428 L63.33,34.2 C63.33,35.396 62.356,36.37 61.159,36.37 L58.388,36.37 C57.191,36.37 56.217,35.396 56.217,34.2 L56.217,31.428 L56.217,31.428 Z" id="Shape"></path>
                    <path d="M46.918,57.419 C52.024,57.419 56.179,53.264 56.179,48.158 C56.179,43.051 52.024,38.896 46.918,38.896 C41.812,38.896 37.657,43.051 37.657,48.158 C37.657,53.264 41.812,57.419 46.918,57.419 Z M46.918,40.896 C50.922,40.896 54.179,44.154 54.179,48.158 C54.179,52.162 50.922,55.419 46.918,55.419 C42.914,55.419 39.657,52.162 39.657,48.158 C39.657,44.154 42.915,40.896 46.918,40.896 Z" id="Shape"></path>
                    <path d="M32.216,71.876 L61.62,71.876 C67.291,71.876 71.906,67.262 71.906,61.59 L71.906,32.186 C71.906,26.515 67.292,21.901 61.62,21.901 L32.216,21.901 C26.545,21.901 21.93,26.515 21.93,32.186 L21.93,61.591 C21.93,67.262 26.544,71.876 32.216,71.876 Z M23.93,32.186 C23.93,27.618 27.647,23.901 32.216,23.901 L61.62,23.901 C66.189,23.901 69.906,27.618 69.906,32.186 L69.906,61.591 C69.906,66.16 66.189,69.877 61.62,69.877 L32.216,69.877 C27.647,69.877 23.93,66.16 23.93,61.591 L23.93,32.186 Z" id="Shape"></path>
                </g>
            </g>
        </g>
    </g>
</svg>