<?xml version="1.0" encoding="UTF-8"?>
<svg width="93px" height="93px" viewBox="0 0 93 93" version="1.1" xmlns="http://www.w3.org/2000/svg" xmlns:xlink="http://www.w3.org/1999/xlink">
    <!-- Generator: Sketch 41.2 (35397) - http://www.bohemiancoding.com/sketch -->
    <title>1496371531_Neon_Line_Social_Circles_50Icon_10px_grid-36</title>
    <desc>Created with Sketch.</desc>
    <defs></defs>
    <g id="Page-1" stroke="none" stroke-width="1" fill="none" fill-rule="evenodd">
        <g id="1496371531_Neon_Line_Social_Circles_50Icon_10px_grid-36" fill="#FFFFFF">
            <g id="Layer_1">
                <g id="Group">
                    <path d="M46.15,92.868 C71.503,92.868 92.128,72.243 92.128,46.89 C92.128,21.537 71.503,0.913 46.15,0.913 C20.797,0.913 0.173,21.539 0.173,46.891 C0.173,72.243 20.798,92.868 46.15,92.868 Z M46.15,2.913 C70.399,2.913 90.128,22.641 90.128,46.891 C90.128,71.141 70.399,90.868 46.15,90.868 C21.901,90.868 2.173,71.14 2.173,46.891 C2.173,22.642 21.901,2.913 46.15,2.913 Z" id="Shape"></path>
                    <path d="M23.237,61.711 C27.628,64.528 32.706,66.018 37.923,66.018 C47.651,66.018 53.913,61.603 57.453,57.9 C62.48,52.642 65.342,45.261 65.169,38.058 C66.89,36.745 68.374,35.162 69.587,33.345 C69.834,32.975 69.807,32.486 69.52,32.146 C69.234,31.806 68.758,31.696 68.35,31.876 C67.883,32.083 67.408,32.27 66.925,32.435 C67.596,31.536 68.118,30.527 68.466,29.443 C68.593,29.047 68.462,28.615 68.137,28.356 C67.813,28.097 67.363,28.065 67.004,28.277 C65.433,29.208 63.744,29.882 61.978,30.286 C60.084,28.485 57.542,27.463 54.918,27.463 C51.781,27.463 48.862,28.873 46.911,31.331 C45.235,33.441 44.472,36.069 44.735,38.703 C38.093,38.037 31.934,34.735 27.683,29.521 C27.475,29.267 27.156,29.133 26.829,29.156 C26.502,29.182 26.208,29.366 26.043,29.65 C23.982,33.186 24.287,37.495 26.518,40.677 C26.366,40.604 26.216,40.527 26.069,40.446 C25.763,40.276 25.39,40.278 25.087,40.452 C24.783,40.626 24.593,40.946 24.584,41.296 C24.505,44.616 26.144,47.717 28.729,49.646 C28.478,49.668 28.241,49.785 28.069,49.979 C27.836,50.243 27.758,50.611 27.866,50.947 C28.925,54.248 31.552,56.725 34.773,57.653 C31.524,59.538 27.711,60.329 23.895,59.878 C23.444,59.828 22.994,60.095 22.836,60.534 C22.678,60.973 22.846,61.459 23.237,61.711 Z M38.056,57.836 C38.39,57.575 38.523,57.133 38.388,56.732 C38.253,56.331 37.881,56.057 37.458,56.049 C34.478,55.995 31.808,54.343 30.404,51.805 C31.37,51.823 32.323,51.699 33.249,51.446 C33.696,51.323 34.001,50.91 33.984,50.446 C33.968,49.983 33.636,49.592 33.181,49.5 C29.856,48.833 27.288,46.13 26.705,42.909 C27.679,43.247 28.702,43.438 29.731,43.47 C30.221,43.487 30.579,43.2 30.714,42.776 C30.851,42.351 30.689,41.887 30.318,41.639 C27.116,39.499 25.874,35.464 27.154,31.965 C31.982,37.238 38.721,40.433 45.877,40.791 C46.185,40.808 46.493,40.674 46.694,40.434 C46.895,40.194 46.971,39.872 46.9,39.566 C46.328,37.104 46.902,34.555 48.476,32.572 C50.045,30.594 52.393,29.461 54.916,29.461 C57.182,29.461 59.371,30.408 60.921,32.06 C61.157,32.311 61.504,32.421 61.844,32.357 C63,32.129 64.127,31.799 65.218,31.369 C64.596,32.168 63.826,32.853 62.94,33.385 C62.536,33.628 62.356,34.12 62.508,34.566 C62.661,35.013 63.111,35.291 63.573,35.235 C64.326,35.145 65.07,35.012 65.802,34.837 C65.113,35.537 64.365,36.177 63.564,36.755 C63.291,36.952 63.135,37.274 63.15,37.611 C63.458,44.447 60.787,51.515 56.005,56.516 C52.734,59.937 46.942,64.016 37.92,64.016 C34.426,64.016 31,63.295 27.833,61.91 C31.542,61.556 35.115,60.141 38.056,57.836 Z" id="Shape"></path>
                </g>
            </g>
        </g>
    </g>
</svg>