<?xml version="1.0" encoding="utf-8"?>
<!-- Generator: Adobe Illustrator 21.0.1, SVG Export Plug-In . SVG Version: 6.00 Build 0)  -->
<svg version="1.1" id="Layer_1" xmlns="http://www.w3.org/2000/svg" xmlns:xlink="http://www.w3.org/1999/xlink" x="0px" y="0px"
	 viewBox="0 0 178.6 199.2" style="enable-background:new 0 0 178.6 199.2;" xml:space="preserve">
<style type="text/css">
	.st0{display:none;}
	.st1{display:inline;fill-rule:evenodd;clip-rule:evenodd;fill:none;stroke:#000000;stroke-width:14;stroke-miterlimit:100;}
	.st2{display:inline;}
	.st3{fill:none;}
	.st4{stroke:#000000;stroke-width:0.75;stroke-miterlimit:100;}
	.st5{stroke:#000000;stroke-width:0.5;stroke-miterlimit:100;}
	.st6{fill:#FFFFFF;}
</style>
<g id="New_Logo_-_original" class="st0">
	<rect x="-52.7" y="279.4" class="st1" width="164.6" height="185.2"/>
	<g class="st2">
		<rect x="-32.5" y="298.6" class="st3" width="124.2" height="22.4"/>
		<path d="M-19.1,301.6h2.2l-5.5,14.1h-2.1l-5.2-14.1h2.2l4.1,11.8L-19.1,301.6z"/>
		<path d="M-1.5,309.3v4.8h9v1.6h-11v-14.1H7.2v1.7h-8.7v4.4h7.6v1.7H-1.5z"/>
		<path d="M34.3,301.6v14.1h-1.9l-8.5-11.5l0.2,11.5h-1.9v-14.1h1.9l8.4,11.3l-0.1-11.3H34.3z"/>
		<path d="M61.8,301.6v9c0,0.6,0,1.2-0.2,1.8c-0.4,1.7-2.2,3.6-5.8,3.6c-1.1,0-3.3-0.2-4.8-1.9c-1-1.2-1-2.3-1-3.8v-8.8h2.1v8.5
			c0,1.3,0,2.4,0.8,3.3c0.9,1,2.3,1.1,2.9,1.1c1.8,0,3.3-0.8,3.7-2.3c0.2-0.6,0.2-1.2,0.2-2.1v-8.5H61.8z"/>
		<path d="M79.6,309.3v4.8h9v1.6h-11v-14.1h10.7v1.7h-8.7v4.4h7.6v1.7H79.6z"/>
	</g>
	<g class="st2">
		<rect x="-32.5" y="407.3" class="st3" width="124.2" height="50.4"/>
		<path d="M-24.6,424.1c-1.6,1.1-3.7,1.2-5.1,1.2v-1.9c3.9-0.1,5.1-1.3,5.4-4.1h2.2v19.5h-2.5V424.1z"/>
		<path d="M13.2,436.9H17v2h-3.7v6.2h-2.4v-6.2H-1.9v-2l12.7-17.4h2.4V436.9z M10.8,436.9v-3.5c0-2.5,0-8.5,0.3-11.6
			c-0.5,1-0.7,1.3-2.6,4.2l-7.7,10.9H10.8z"/>
		<path d="M52.6,436.8v2H35.4V437c3.1-1.9,4.9-3.1,7.2-4.7c3.3-2.2,5.7-4.2,5.7-6.8c0-2.8-2.5-4.4-5.1-4.4c-3,0-5.4,1.9-5.4,4.8
			c0,0.6,0.1,0.9,0.2,1.3l-2.7-0.8c-0.3-4.7,3.5-7.3,7.9-7.3c5,0,7.7,3,7.7,6.4c0,4.3-3.9,6.7-9.8,10.3l-2.4,1.2L52.6,436.8z"/>
		<path d="M79.7,439.2c-6.4,0-9.4-4.9-9.4-10.1c0-5.7,3.5-10,9.6-10c5.7,0,9.2,3.9,9.2,9.8C89.2,435.6,85.1,439.2,79.7,439.2z
			 M84.7,423.1c-1.1-1.2-2.8-2.1-4.9-2.1c-3.9,0-7,2.9-7,8.2c0,4.4,2.2,8.1,7,8.1c1.1,0,3-0.1,4.6-1.7c1.9-1.8,2.2-4.6,2.2-6.6
			C86.6,426.9,86.2,424.7,84.7,423.1z"/>
	</g>
</g>
<g id="Original_Logo" class="st0">
	<rect x="8.3" y="7.3" class="st1" width="165.1" height="185.2"/>
	<g class="st2">
		<rect x="28.5" y="32" class="st3" width="124.5" height="22.4"/>
		<path class="st4" d="M41.9,35h2.2l-5.5,14.1h-2.1L31.3,35h2.2l4.1,11.8L41.9,35z"/>
		<path class="st4" d="M59.6,42.6v4.8h9v1.6h-11V35h10.7v1.7h-8.7V41h7.6v1.7H59.6z"/>
		<path class="st4" d="M95.5,35v14.1h-1.9l-8.5-11.5l0.2,11.5h-1.9V35h1.9l8.5,11.3L93.6,35H95.5z"/>
		<path class="st4" d="M123.1,34.9v9c0,0.6,0,1.2-0.2,1.8c-0.4,1.7-2.2,3.6-5.8,3.6c-1.1,0-3.3-0.2-4.8-1.9c-1-1.2-1-2.3-1-3.8v-8.8
			h2.1v8.5c0,1.3,0,2.4,0.8,3.3c0.9,1,2.3,1.1,2.9,1.1c1.8,0,3.3-0.8,3.7-2.3c0.2-0.6,0.2-1.2,0.2-2.1v-8.5H123.1z"/>
		<path class="st4" d="M140.9,42.6v4.8h9v1.6h-11V35h10.7v1.7h-8.7V41h7.6v1.7H140.9z"/>
	</g>
	<g class="st2">
		<rect x="33.6" y="140.7" class="st3" width="114.4" height="34.2"/>
		<path class="st5" d="M43.9,155.7c-1.3,1-3.1,1.1-4.3,1.1V155c3.3-0.1,4.3-1.2,4.6-3.6H46v17.4h-2.1V155.7z"/>
		<path class="st5" d="M76.6,167.1h3.2v1.7h-3.2v5.5h-2.1v-5.5H63.8v-1.7l10.7-15.5h2.1V167.1z M74.5,167.1v-3.1
			c0-2.2,0-7.6,0.3-10.3c-0.4,0.9-0.6,1.2-2.2,3.8l-6.5,9.7H74.5z"/>
		<path class="st5" d="M110.6,167v1.8H96v-1.6c2.6-1.7,4.1-2.7,6.1-4.2c2.8-1.9,4.9-3.8,4.9-6.1c0-2.5-2.1-4-4.3-4
			c-2.5,0-4.6,1.7-4.6,4.3c0,0.5,0.1,0.8,0.2,1.2l-2.3-0.7c-0.3-4.2,3-6.5,6.7-6.5c4.2,0,6.5,2.7,6.5,5.7c0,3.9-3.3,6-8.3,9.2
			l-2,1.1L110.6,167z"/>
		<path class="st5" d="M134.1,169.2c-5.4,0-7.9-4.4-7.9-9c0-5.1,3-8.9,8.1-8.9c4.8,0,7.7,3.5,7.8,8.7
			C142.2,166,138.7,169.2,134.1,169.2z M138.4,154.7c-0.9-1.1-2.3-1.8-4.1-1.8c-3.3,0-5.9,2.6-5.9,7.3c0,3.9,1.9,7.2,5.9,7.2
			c0.9,0,2.5-0.1,3.9-1.5c1.6-1.6,1.9-4.1,1.9-5.9C140,158.1,139.7,156.2,138.4,154.7z"/>
	</g>
	<g class="st2">
		<g>
			<rect x="58" y="71.4" class="st5" width="13" height="60.8"/>
			
				<rect x="70.7" y="106.9" transform="matrix(6.123234e-17 -1 1 6.123234e-17 -48.8354 203.3227)" class="st5" width="13" height="38.4"/>
		</g>
		<g>
			
				<rect x="111.3" y="71.8" transform="matrix(-1 -1.224647e-16 1.224647e-16 -1 235.7175 204.436)" class="st5" width="13" height="60.8"/>
			
				<rect x="98.7" y="58.7" transform="matrix(-1.836970e-16 1 -1 -1.836970e-16 183.1336 -27.241)" class="st5" width="13" height="38.4"/>
		</g>
	</g>
</g>
<g id="Original_Logo_1_" class="st0">
	<rect x="-43.2" y="33" class="st1" width="164.6" height="185.2"/>
	<g class="st2">
		<path class="st4" d="M-9.6,60.7h2.2l-5.5,14.1h-2.1l-5.2-14.1h2.2l4.1,11.8L-9.6,60.7z"/>
		<path class="st4" d="M8,68.4v4.8h9v1.6H6V60.7h10.7v1.7H8v4.4h7.6v1.7H8z"/>
		<path class="st4" d="M43.8,60.7v14.1h-1.9l-8.5-11.5l0.2,11.5h-1.9V60.7h1.9L42,72l-0.1-11.3H43.8z"/>
		<path class="st4" d="M71.3,60.7v9c0,0.6,0,1.2-0.2,1.8c-0.4,1.7-2.2,3.6-5.8,3.6c-1.1,0-3.3-0.2-4.8-1.9c-1-1.2-1-2.3-1-3.8v-8.8
			h2.1v8.5c0,1.3,0,2.4,0.8,3.3c0.9,1,2.3,1.1,2.9,1.1c1.8,0,3.3-0.8,3.7-2.3c0.2-0.6,0.2-1.2,0.2-2.1v-8.5H71.3z"/>
		<path class="st4" d="M89.1,68.4v4.8h9v1.6h-11V60.7h10.7v1.7h-8.7v4.4h7.6v1.7H89.1z"/>
	</g>
	<g class="st2">
		<path class="st5" d="M-7.6,181.4c-1.3,1-3.1,1.1-4.3,1.1v-1.7c3.3-0.1,4.3-1.2,4.6-3.6h1.9v17.4h-2.1V181.4z"/>
		<path class="st5" d="M25,192.8h3.2v1.7H25v5.5h-2.1v-5.5H12.3v-1.7l10.7-15.5H25V192.8z M22.9,192.8v-3.1c0-2.2,0-7.6,0.3-10.3
			c-0.4,0.9-0.6,1.2-2.2,3.8l-6.5,9.7H22.9z"/>
		<path class="st5" d="M58.9,192.7v1.8H44.4v-1.6c2.6-1.7,4.1-2.7,6.1-4.2c2.8-1.9,4.8-3.8,4.8-6.1c0-2.5-2.1-4-4.3-4
			c-2.5,0-4.6,1.7-4.6,4.3c0,0.5,0.1,0.8,0.2,1.2l-2.3-0.7c-0.3-4.2,3-6.5,6.7-6.5c4.2,0,6.5,2.7,6.5,5.7c0,3.9-3.3,6-8.3,9.2
			l-2,1.1L58.9,192.7z"/>
		<path class="st5" d="M82.4,194.9c-5.4,0-7.9-4.4-7.9-9c0-5.1,3-8.9,8.1-8.9c4.8,0,7.7,3.5,7.8,8.7
			C90.4,191.7,86.9,194.9,82.4,194.9z M86.6,180.5c-0.9-1.1-2.3-1.8-4.1-1.8c-3.3,0-5.9,2.6-5.9,7.3c0,3.9,1.9,7.2,5.9,7.2
			c0.9,0,2.5-0.1,3.9-1.5c1.6-1.6,1.9-4.1,1.9-5.9C88.2,183.9,87.9,181.9,86.6,180.5z"/>
	</g>
	<g class="st2">
		<g>
			<rect x="6.5" y="97.2" class="st5" width="13" height="60.8"/>
			
				<rect x="19.1" y="132.7" transform="matrix(6.123234e-17 -1 1 6.123234e-17 -126.176 177.4401)" class="st5" width="13" height="38.3"/>
		</g>
		<g>
			
				<rect x="59.6" y="97.6" transform="matrix(-1 -1.224647e-16 1.224647e-16 -1 132.2741 255.894)" class="st5" width="13" height="60.8"/>
			
				<rect x="47" y="84.5" transform="matrix(-1.836970e-16 1 -1 -1.836970e-16 157.1753 50.1754)" class="st5" width="13" height="38.3"/>
		</g>
	</g>
</g>
<polygon id="Box" class="st6" points="171.7,192.1 171.7,185.1 14,185.1 14,14.1 164.7,14.1 164.7,192.1 171.7,192.1 171.7,185.1 
	171.7,192.1 178.7,192.1 178.7,0.1 0,0.1 0,199.1 178.7,199.1 178.7,192.1 "/>
<g id="Transform_Mark">
	<rect x="42.3" y="55.6" class="st6" width="18.5" height="86.4"/>
	<polygon class="st6" points="60.8,142 60.8,141.6 42.7,141.6 42.7,55.9 60.5,55.9 60.5,142 60.8,142 60.8,141.6 60.8,142 61.2,142 
		61.2,55.2 42,55.2 42,142.3 61.2,142.3 61.2,142 	"/>
	<rect x="42.3" y="124" class="st6" width="54.5" height="18.5"/>
	<polygon class="st6" points="96.8,124 96.4,124 96.4,142.2 42.7,142.2 42.7,124.4 96.8,124.4 96.8,124 96.4,124 96.8,124 
		96.8,123.7 42,123.7 42,142.9 97.1,142.9 97.1,123.7 96.8,123.7 	"/>
	<rect x="117.9" y="56.2" class="st6" width="18.5" height="86.4"/>
	<polygon class="st6" points="117.9,56.2 117.9,56.5 136,56.5 136,142.2 118.2,142.2 118.2,56.2 117.9,56.2 117.9,56.5 117.9,56.2 
		117.5,56.2 117.5,142.9 136.7,142.9 136.7,55.8 117.5,55.8 117.5,56.2 	"/>
	<rect x="81.9" y="55.6" class="st6" width="54.5" height="18.5"/>
	<polygon class="st6" points="81.9,74.1 82.3,74.1 82.3,55.9 136,55.9 136,73.8 81.9,73.8 81.9,74.1 82.3,74.1 81.9,74.1 81.9,74.5 
		136.7,74.5 136.7,55.2 81.6,55.2 81.6,74.5 81.9,74.5 	"/>
</g>
<g>
</g>
<g>
</g>
<g>
</g>
<g>
</g>
<g>
</g>
</svg>
