<svg id="Layer_1" data-name="Layer 1" xmlns="http://www.w3.org/2000/svg" viewBox="0 0 178.61 199.17"><defs><style>.cls-1{fill:#fff;}</style></defs><title>Artboard 1</title><polygon class="cls-1" points="171.61 192.17 171.61 185.17 14 185.17 14 14 164.61 14 164.61 192.17 171.61 192.17 171.61 185.17 171.61 192.17 178.61 192.17 178.61 0 0 0 0 199.17 178.61 199.17 178.61 192.17 171.61 192.17"/><polygon class="cls-1" points="40.58 34.68 42.78 34.68 37.3 48.8 35.23 48.8 29.99 34.68 32.19 34.68 36.31 46.48 40.58 34.68"/><polygon class="cls-1" points="40.58 34.68 40.58 35.18 42.05 35.18 36.95 48.3 35.58 48.3 30.71 35.18 31.84 35.18 36.3 47.98 41.05 34.85 40.58 34.68 40.58 35.18 40.58 34.68 40.11 34.51 36.32 44.99 32.55 34.18 29.27 34.18 34.88 49.3 37.64 49.3 43.51 34.18 40.23 34.18 40.11 34.51 40.58 34.68"/><polygon class="cls-1" points="58.2 42.36 58.2 47.16 67.17 47.16 67.17 48.8 56.19 48.8 56.19 34.68 66.91 34.68 66.91 36.34 58.2 36.34 58.2 40.7 65.77 40.7 65.77 42.36 58.2 42.36"/><polygon class="cls-1" points="58.2 42.36 57.7 42.36 57.7 47.66 66.67 47.66 66.67 48.3 56.69 48.3 56.69 35.18 66.41 35.18 66.41 35.84 57.7 35.84 57.7 41.2 65.27 41.2 65.27 41.86 57.7 41.86 57.7 42.36 58.2 42.36 58.2 42.86 66.27 42.86 66.27 40.2 58.7 40.2 58.7 36.84 67.41 36.84 67.41 34.18 55.69 34.18 55.69 49.3 67.67 49.3 67.67 46.66 58.7 46.66 58.7 42.36 58.2 42.36 58.2 42.86 58.2 42.36"/><polygon class="cls-1" points="93.99 34.68 93.99 48.8 92.12 48.8 83.61 37.32 83.78 48.8 81.85 48.8 81.85 34.68 83.78 34.68 92.21 46.01 92.12 34.68 93.99 34.68"/><polygon class="cls-1" points="93.99 34.68 93.49 34.68 93.49 48.3 92.37 48.3 83.08 35.78 83.27 48.3 82.35 48.3 82.35 35.18 83.53 35.18 92.72 47.53 92.63 35.18 93.99 35.18 93.99 34.68 93.49 34.68 93.99 34.68 93.99 34.18 91.62 34.18 91.7 44.48 84.03 34.18 81.35 34.18 81.35 49.3 84.29 49.3 84.13 38.87 91.87 49.3 94.49 49.3 94.49 34.18 93.99 34.18 93.99 34.68"/><path class="cls-1" d="M121.51,34.66v9a7.85,7.85,0,0,1-.2,1.84c-.44,1.7-2.18,3.62-5.81,3.62a6.11,6.11,0,0,1-4.77-1.88c-1-1.2-1-2.26-1-3.84V34.66h2.09v8.5c0,1.3,0,2.4.79,3.3a3.8,3.8,0,0,0,2.9,1.1c1.83,0,3.26-.8,3.72-2.34a8.21,8.21,0,0,0,.2-2.1V34.66Z"/><path class="cls-1" d="M121.51,34.66H121v9h.5l-.5,0a7.44,7.44,0,0,1-.18,1.73h0a4,4,0,0,1-1.52,2.17,6.28,6.28,0,0,1-3.81,1.08,7.53,7.53,0,0,1-2.12-.27,4.65,4.65,0,0,1-2.27-1.43h0a3.25,3.25,0,0,1-.77-1.49,8.7,8.7,0,0,1-.12-1.84V35.16h1.09v8h0c0,.19,0,.37,0,.55a6.78,6.78,0,0,0,.15,1.61,3.33,3.33,0,0,0,.78,1.48l.37-.34-.37.33a4.28,4.28,0,0,0,3.28,1.27,5,5,0,0,0,2.63-.67,3.53,3.53,0,0,0,1.57-2h0a8.63,8.63,0,0,0,.22-2.23h0v-8h1.59v-.5h0v-.5h-2.59v9h0a7.8,7.8,0,0,1-.18,2l.48.14-.48-.14a2.51,2.51,0,0,1-1.13,1.47,4,4,0,0,1-2.11.52,3.31,3.31,0,0,1-2.53-.93h0a2.33,2.33,0,0,1-.55-1.05,5.85,5.85,0,0,1-.12-1.37c0-.17,0-.35,0-.53h0v-9h-3.09v9.45a9.59,9.59,0,0,0,.15,2.06,4.26,4.26,0,0,0,1,1.92h0a5.66,5.66,0,0,0,2.75,1.74,8.53,8.53,0,0,0,2.4.32,7.28,7.28,0,0,0,4.4-1.27,5,5,0,0,0,1.9-2.73l-.48-.12.48.13a8.24,8.24,0,0,0,.22-2h0V34.16h-.5Z"/><polygon class="cls-1" points="139.29 42.36 139.29 47.16 148.26 47.16 148.26 48.8 137.28 48.8 137.28 34.68 148 34.68 148 36.34 139.29 36.34 139.29 40.7 146.85 40.7 146.85 42.36 139.29 42.36"/><polygon class="cls-1" points="139.29 42.36 138.79 42.36 138.79 47.66 147.76 47.66 147.76 48.3 137.78 48.3 137.78 35.18 147.5 35.18 147.5 35.84 138.79 35.84 138.79 41.2 146.35 41.2 146.35 41.86 138.79 41.86 138.79 42.36 139.29 42.36 139.29 42.86 147.35 42.86 147.35 40.2 139.79 40.2 139.79 36.84 148.5 36.84 148.5 34.18 136.78 34.18 136.78 49.3 148.76 49.3 148.76 46.66 139.79 46.66 139.79 42.36 139.29 42.36 139.29 42.86 139.29 42.36"/><path class="cls-1" d="M42.53,155.38a7,7,0,0,1-4.29,1.06v-1.68c3.29-.1,4.29-1.16,4.56-3.63h1.85v17.39H42.53Z"/><path class="cls-1" d="M42.53,155.38l-.3-.4a6.17,6.17,0,0,1-3.63,1h-.35v.5h.5v-1.68h-.5l0,.5a5.91,5.91,0,0,0,3.72-1,3.29,3.29,0,0,0,.92-1.3,6.47,6.47,0,0,0,.4-1.73l-.5-.06v.5h1.35V168H43V154.39l-.8.59.3.4H42V169h3.13V150.62h-2.8l0,.44a5.5,5.5,0,0,1-.33,1.46,2.22,2.22,0,0,1-1.14,1.23,6.48,6.48,0,0,1-2.61.49h-.48v2.65h.86a7.13,7.13,0,0,0,4.23-1.16l-.3-.4h0Z"/><path class="cls-1" d="M75.16,166.77h3.16v1.75H75.16v5.54H73.1v-5.54H62.43v-1.75L73.1,151.22h2.06Zm-2.06,0v-3.14c0-2.21,0-7.56.27-10.33-.41.86-.62,1.16-2.2,3.76l-6.45,9.7Z"/><path class="cls-1" d="M75.16,166.77v.5h2.66V168H74.66v5.54H73.6V168H62.93v-1.09l10.44-15.2h1.3v15.55h.5v-.5h.5v-16H72.84L61.93,166.61V169H72.6v5.54h3.06V169h3.16v-2.75H75.16v.5h0Zm-2.06,0h.5v-3.14c0-2.21,0-7.56.27-10.28l.28-2.82-1.23,2.55c-.2.42-.34.69-.64,1.19s-.74,1.23-1.53,2.53l.43.26-.42-.28-7,10.48H73.6v-.5h-.5v-.5H65.66l5.94-8.94h0c.79-1.3,1.23-2,1.54-2.54s.47-.83.68-1.26l-.45-.22-.5,0c-.28,2.82-.28,8.16-.28,10.38v3.14h.5v0Z"/><path class="cls-1" d="M109,166.7v1.82H94.55V166.9c2.57-1.72,4.12-2.74,6.11-4.19,2.78-1.95,4.84-3.76,4.84-6.11a4.05,4.05,0,0,0-4.29-4A4.32,4.32,0,0,0,96.65,157a3.72,3.72,0,0,0,.21,1.19l-2.3-.69c-.27-4.16,3-6.54,6.66-6.54,4.22,0,6.45,2.67,6.45,5.68,0,3.86-3.29,6-8.3,9.21l-2,1.09Z"/><path class="cls-1" d="M109,166.7h-.5V168H95.05V166.9h-.5l.28.42c2.57-1.71,4.13-2.74,6.13-4.2l-.29-.4.29.41a19.73,19.73,0,0,0,3.55-3,5.34,5.34,0,0,0,1.5-3.53,4.23,4.23,0,0,0-1.5-3.29,5.09,5.09,0,0,0-3.29-1.17,5.25,5.25,0,0,0-3.56,1.31A4.66,4.66,0,0,0,96.15,157a4.21,4.21,0,0,0,.23,1.33l.48-.14.14-.48L94.7,157l-.14.48.5,0q0-.23,0-.45a5.15,5.15,0,0,1,1.84-4.09,6.75,6.75,0,0,1,4.34-1.46,6.24,6.24,0,0,1,4.46,1.57,4.93,4.93,0,0,1,1.49,3.6,6,6,0,0,1-2.12,4.48,39.93,39.93,0,0,1-6,4.31l.27.42-.24-.44-3.84,2.06L109,167.2v-.5h0v-.5l-9.64.16.21-.11h0a40.63,40.63,0,0,0,6.11-4.43,7,7,0,0,0,2.42-5.2,5.93,5.93,0,0,0-1.8-4.32,7.24,7.24,0,0,0-5.15-1.85,7.73,7.73,0,0,0-5,1.7A6.16,6.16,0,0,0,94,157c0,.17,0,.34,0,.52l0,.35,3.51,1.06-.25-.88a3.23,3.23,0,0,1-.19-1.05,3.65,3.65,0,0,1,1.18-2.77,4.25,4.25,0,0,1,2.89-1.05,4.1,4.1,0,0,1,2.64.93A3.22,3.22,0,0,1,105,156.6a4.35,4.35,0,0,1-1.25,2.87,18.92,18.92,0,0,1-3.37,2.82h0c-2,1.45-3.52,2.46-6.09,4.18l-.22.15V169h15.48v-2.82H109Z"/><path class="cls-1" d="M132.55,168.88c-5.42,0-7.89-4.36-7.89-9,0-5.08,3-8.91,8.1-8.91,4.77,0,7.72,3.47,7.79,8.71C140.61,165.68,137.11,168.88,132.55,168.88Zm4.25-14.42a5.34,5.34,0,0,0-4.12-1.85c-3.26,0-5.9,2.61-5.9,7.29,0,3.93,1.85,7.23,5.9,7.23a5.21,5.21,0,0,0,3.88-1.52c1.61-1.62,1.85-4.13,1.85-5.87A7.84,7.84,0,0,0,136.8,154.46Z"/><path class="cls-1" d="M132.55,168.88v-.5a6.71,6.71,0,0,1-5.58-2.57,9.79,9.79,0,0,1-1.81-6,9.09,9.09,0,0,1,2-6,7.13,7.13,0,0,1,5.6-2.38,6.77,6.77,0,0,1,5.28,2.22,9.09,9.09,0,0,1,2,6v.17a9.09,9.09,0,0,1-2.17,6.41,7.12,7.12,0,0,1-5.33,2.15v1a8.12,8.12,0,0,0,6.06-2.47,10.08,10.08,0,0,0,2.44-7.1v-.18a10.08,10.08,0,0,0-2.26-6.65,7.79,7.79,0,0,0-6-2.56,8.14,8.14,0,0,0-6.36,2.72,10.08,10.08,0,0,0-2.24,6.69,10.77,10.77,0,0,0,2,6.59,7.72,7.72,0,0,0,6.38,3Zm4.25-14.42.38-.32a5.84,5.84,0,0,0-4.5-2,5.91,5.91,0,0,0-4.55,2.06,8.61,8.61,0,0,0-1.85,5.73,9.07,9.07,0,0,0,1.53,5.38,5.78,5.78,0,0,0,4.87,2.34,5.71,5.71,0,0,0,4.24-1.67l-.36-.35.35.35a6.61,6.61,0,0,0,1.66-3.12,13,13,0,0,0,.34-3.11,8.32,8.32,0,0,0-1.74-5.61l-.38.33.38-.32-.38.32-.38.33a7.35,7.35,0,0,1,1.49,5,12,12,0,0,1-.31,2.87,5.62,5.62,0,0,1-1.4,2.66h0a4.71,4.71,0,0,1-3.52,1.37,4.77,4.77,0,0,1-4.07-1.94,8.1,8.1,0,0,1-1.34-4.79,7.62,7.62,0,0,1,1.61-5.08,4.9,4.9,0,0,1,3.79-1.72,4.84,4.84,0,0,1,3.74,1.67h0Z"/><rect class="cls-1" x="56.66" y="71.14" width="13.01" height="60.76"/><polygon class="cls-1" points="69.67 131.91 69.67 131.66 56.91 131.66 56.91 71.39 69.42 71.39 69.42 131.91 69.67 131.91 69.67 131.66 69.67 131.91 69.92 131.91 69.92 70.89 56.41 70.89 56.41 132.16 69.92 132.16 69.92 131.91 69.67 131.91"/><rect class="cls-1" x="56.66" y="119.28" width="38.29" height="13.04"/><polygon class="cls-1" points="94.95 119.28 94.7 119.28 94.7 132.07 56.91 132.07 56.91 119.53 94.95 119.53 94.95 119.28 94.7 119.28 94.95 119.28 94.95 119.03 56.41 119.03 56.41 132.57 95.2 132.57 95.2 119.03 94.95 119.03 94.95 119.28"/><rect class="cls-1" x="109.8" y="71.55" width="13.01" height="60.76"/><polygon class="cls-1" points="109.8 71.55 109.8 71.8 122.57 71.8 122.57 132.07 110.05 132.07 110.05 71.55 109.8 71.55 109.8 71.8 109.8 71.55 109.55 71.55 109.55 132.57 123.07 132.57 123.07 71.3 109.55 71.3 109.55 71.55 109.8 71.55"/><rect class="cls-1" x="84.53" y="71.14" width="38.29" height="13.04"/><polygon class="cls-1" points="84.53 84.18 84.78 84.18 84.78 71.39 122.57 71.39 122.57 83.93 84.53 83.93 84.53 84.18 84.78 84.18 84.53 84.18 84.53 84.43 123.07 84.43 123.07 70.89 84.28 70.89 84.28 84.43 84.53 84.43 84.53 84.18"/></svg>